<svg width="60" height="60" viewBox="0 0 60 60" fill="none" xmlns="http://www.w3.org/2000/svg">
<rect width="60" height="60" rx="30" fill="#0BB46D"/>
<g clip-path="url(#clip0_52389_2351)">
<path d="M43.8786 17.9093C46.424 17.9093 48.4874 15.7708 48.4874 13.1329C48.4874 10.4949 46.424 8.35645 43.8786 8.35645C41.3332 8.35645 39.2698 10.4949 39.2698 13.1329C39.2698 15.7708 41.3332 17.9093 43.8786 17.9093Z" fill="white"/>
<path d="M50.5997 18.3071H47.5272C47.1431 18.3071 46.855 18.5558 46.759 18.9539L44.7427 28.2579L44.4546 20.6455C44.7427 20.546 44.9827 20.2475 44.9827 19.8992V19.5012C44.9827 19.0534 44.6467 18.7051 44.2146 18.7051H43.4945C43.0624 18.7051 42.7263 19.0534 42.7263 19.5012V19.8992C42.7263 20.2475 42.9664 20.546 43.2544 20.6455L42.9664 28.2579L40.998 18.9041C40.902 18.5559 40.6139 18.2573 40.2299 18.2573H37.1573C35.9571 18.2573 35.045 19.3022 35.141 20.546L36.6772 32.1388C36.7733 33.0343 37.4934 33.6812 38.3095 33.6812H38.6936L40.71 50.5976C40.758 51.1947 41.3341 51.6424 42.0542 51.6424H45.7028C46.423 51.6424 46.9991 51.1947 47.0471 50.5976L49.0634 33.6812H49.4475C50.3117 33.6812 50.9838 33.0343 51.0798 32.1388L52.6161 20.546C52.7121 19.3519 51.7999 18.3071 50.5997 18.3071Z" fill="white"/>
</g>
<g clip-path="url(#clip1_52389_2351)">
<path d="M16.3742 49.6635C16.3742 50.8597 17.3439 51.8287 18.5394 51.8287C19.7352 51.8287 20.7049 50.8597 20.7049 49.6635V33.8539H21.5167V49.6635C21.5167 50.8597 22.4864 51.8287 23.6819 51.8287C24.8777 51.8287 25.8474 50.8597 25.8474 49.6635V32.5003V29.1834V23.3838C25.9513 23.5966 26.056 23.8409 26.1593 24.1259C26.6529 25.494 27.0679 27.7389 27.0665 31.243C27.0665 32.2087 27.0357 33.27 26.9677 34.4345C26.9224 35.2072 27.5124 35.8697 28.2849 35.9149C28.3128 35.9163 28.3405 35.9174 28.3681 35.9174C29.1042 35.9174 29.7216 35.3424 29.7654 34.5977C29.8359 33.3837 29.8689 32.2686 29.8689 31.2432C29.862 25.9569 29.0175 23.0318 27.866 21.2726C27.291 20.3992 26.6178 19.8391 25.9959 19.5289C25.3745 19.2156 24.8292 19.1533 24.5187 19.1543C24.4071 19.1543 24.3234 19.1618 24.2707 19.1683C24.2696 19.1685 24.2687 19.1688 24.2677 19.169H23.6421L23.2416 22.3006L21.534 20.2428L22.5029 19.169H19.7187L20.6876 20.2428L18.98 22.3006L18.5795 19.169H17.9541C17.9528 19.1688 17.9516 19.1685 17.9504 19.1683H17.95C17.8977 19.162 17.814 19.1545 17.7028 19.1545C17.3921 19.1534 16.8465 19.2156 16.225 19.5287C15.9402 19.6699 15.6489 19.8627 15.3612 20.1118C14.6969 20.6867 14.0524 21.565 13.5564 22.8285C13.11 23.9569 12.755 25.3984 12.5491 27.2783C12.4231 28.4268 12.3531 29.7381 12.352 31.2432C12.3524 32.2283 12.3835 33.2989 12.4492 34.4581L12.1553 34.9354L11.6806 35.7068C11.5727 35.882 11.6273 36.1116 11.8023 36.2193L11.9606 36.3168L8.0346 42.6958C7.96717 42.8052 8.00132 42.9482 8.11078 43.0159C8.22024 43.083 8.3635 43.049 8.43093 42.9396L12.3575 36.5601L13.9424 37.5356C14.1174 37.643 14.3466 37.5887 14.4543 37.4135L15.3237 36.0011L16.3744 34.2942L16.3742 49.6635ZM21.1104 23.5012C21.3762 23.5012 21.592 23.7166 21.592 23.9828C21.592 24.2485 21.3762 24.4644 21.1104 24.4644C20.8441 24.4644 20.6287 24.2485 20.6287 23.9828C20.6287 23.7166 20.8441 23.5012 21.1104 23.5012ZM21.1104 26.5807C21.3762 26.5807 21.592 26.7962 21.592 27.0624C21.592 27.3282 21.3762 27.544 21.1104 27.544C20.8441 27.544 20.6287 27.3282 20.6287 27.0624C20.6287 26.7962 20.8441 26.5807 21.1104 26.5807ZM21.1104 29.66C21.3762 29.66 21.592 29.8757 21.592 30.1416C21.592 30.4076 21.3762 30.6232 21.1104 30.6232C20.8441 30.6232 20.6287 30.4078 20.6287 30.1416C20.6287 29.8757 20.8441 29.66 21.1104 29.66ZM14.5163 36.3957C14.4086 36.5704 14.1794 36.6253 14.0042 36.5174L12.6834 35.7042C12.5084 35.5969 12.4538 35.3673 12.5615 35.1921L12.7568 34.8753C12.8641 34.7002 13.0937 34.6454 13.2687 34.7532L14.5896 35.5664C14.7647 35.6741 14.8192 35.9034 14.7116 36.0785L14.5163 36.3957ZM15.1673 32.2798C15.1596 31.9243 15.1545 31.5758 15.1545 31.243C15.1486 27.0019 15.7668 24.6192 16.3742 23.3758V29.1834V32.5003V33.0226L15.1673 32.2798Z" fill="white"/>
<path d="M25.0509 14.3786C25.0509 13.8858 24.959 13.4149 24.7936 12.9802C24.8884 12.8821 24.9451 12.7788 24.9591 12.6718C25.4169 12.6879 25.7704 12.6148 25.9259 12.3696C26.4481 11.546 25.1094 8.10791 21.1104 8.10791C17.1117 8.10791 15.7724 11.546 16.2949 12.3696C16.4504 12.6148 16.8036 12.6877 17.2616 12.6718C17.2756 12.7786 17.3324 12.8821 17.4271 12.9802C17.262 13.4149 17.1698 13.8856 17.1698 14.3786C17.1698 16.5552 18.9341 18.3192 21.1104 18.3192C23.2864 18.3192 25.0509 16.555 25.0509 14.3786ZM21.1104 8.82491C21.5458 8.82491 21.8985 9.17799 21.8985 9.61302C21.8985 10.0484 21.5458 10.4011 21.1104 10.4011C20.6753 10.4011 20.3223 10.0484 20.3223 9.61302C20.3223 9.17781 20.6752 8.82491 21.1104 8.82491ZM21.1104 10.8099C23.2383 10.8099 24.9633 11.3589 24.9633 12.0358C24.9633 12.1365 24.9243 12.2343 24.8525 12.3278C24.4406 11.7917 22.922 11.3938 21.1104 11.3938C19.2988 11.3938 17.78 11.7919 17.3683 12.3278C17.2965 12.2343 17.2574 12.1365 17.2574 12.0358C17.2574 11.3589 18.9823 10.8099 21.1104 10.8099Z" fill="white"/>
</g>
<defs>
<clipPath id="clip0_52389_2351">
<rect width="18.2432" height="43.7838" fill="white" transform="translate(34.7568 8.10791)"/>
</clipPath>
<clipPath id="clip1_52389_2351">
<rect width="21.8919" height="43.7838" fill="white" transform="translate(8 8.10791)"/>
</clipPath>
</defs>
</svg>
