<svg width="74" height="16" viewBox="0 0 74 16" fill="none" xmlns="http://www.w3.org/2000/svg">
<g clip-path="url(#clip0_9636_3604)">
<path d="M46.3431 10.6141C46.3431 9.81298 46.3574 9.01132 46.3377 8.21075C46.3256 7.71968 46.5221 7.34352 46.8553 7.00367C47.4758 6.37167 48.2485 6.0058 49.0764 5.73533C49.582 5.57001 50.0997 5.45944 50.6337 5.43071C51.7374 5.37163 52.8422 5.41608 53.9459 5.3944C54.4488 5.38464 54.9517 5.37868 55.4546 5.37705C56.3684 5.37326 57.2691 5.4757 58.1222 5.81122C58.746 6.05675 59.3392 6.37763 59.8344 6.83347C60.1934 7.16411 60.3876 7.58146 60.3805 8.08826C60.3586 9.71812 60.3466 11.3485 60.34 12.9789C60.3378 13.5844 60.097 14.0559 59.6308 14.4451C59.0694 14.9134 58.4352 15.2007 57.7211 15.3617C57.285 15.4603 56.8494 15.5638 56.4095 15.6365C55.9876 15.7059 55.5618 15.7601 55.1383 15.8213C54.2299 15.9525 53.3189 15.9281 52.4083 15.9097C51.7872 15.8967 51.1651 15.8717 50.5445 15.843C49.7943 15.8083 49.0693 15.6229 48.3765 15.3395C47.7089 15.0663 47.1026 14.6934 46.6266 14.1421C46.4104 13.8917 46.289 13.6033 46.29 13.2668C46.2939 12.3827 46.2911 11.4981 46.2911 10.6141H46.3426H46.3431ZM55.6784 10.5919C55.6893 10.5919 55.7008 10.5919 55.7118 10.5919C55.7118 10.0282 55.7107 9.46446 55.7118 8.90075C55.7118 8.71809 55.6253 8.57174 55.4951 8.46225C55.1285 8.15438 54.6923 8.00208 54.2174 7.98907C53.6702 7.97389 53.1219 7.97985 52.5741 7.99123C52.1276 8.00045 51.7123 8.12349 51.3424 8.38095C51.1093 8.54356 50.9801 8.74194 50.9878 9.04601C51.0031 9.6753 50.99 10.3062 50.9763 10.936C50.9675 11.3317 51.0009 11.7279 50.9495 12.1242C50.9281 12.2879 50.9024 12.4721 51.0206 12.6158C51.3183 12.9768 51.7139 13.1827 52.1774 13.2185C52.8351 13.2695 53.4956 13.2304 54.1544 13.2277C54.6086 13.2256 55.0152 13.0678 55.3785 12.8033C55.5755 12.6597 55.685 12.4738 55.68 12.2169C55.6696 11.6754 55.6767 11.1339 55.6767 10.5924L55.6784 10.5919Z" fill="white"/>
<path d="M66.5984 15.9732C64.8939 15.9732 63.1893 15.9722 61.4848 15.9754C61.3639 15.9754 61.3135 15.9591 61.3152 15.8188C61.3266 15.0453 61.3277 14.2713 61.3266 13.4978C61.3266 13.3921 61.3529 13.3612 61.4651 13.358C62.7937 13.3211 64.1223 13.3715 65.4509 13.3748C66.5453 13.3769 67.6392 13.3959 68.7336 13.4057C68.8053 13.4062 68.8791 13.3997 68.9486 13.3829C69.1002 13.3471 69.185 13.2637 69.1615 13.0918C69.1297 12.8555 69.1987 12.6219 69.1943 12.385C69.1916 12.2289 69.1286 12.152 68.9661 12.1314C68.1962 12.0333 67.4225 12.0436 66.6493 12.0365C65.3305 12.0241 64.0118 12.0208 62.693 11.9953C62.3483 11.9888 62.0511 11.8175 61.7721 11.6143C61.4169 11.3552 61.3069 11.0175 61.3124 10.5909C61.3294 9.30906 61.3349 8.02609 61.3091 6.7442C61.3004 6.32088 61.4853 6.05854 61.8005 5.83252C62.1918 5.55229 62.6257 5.43359 63.1078 5.43413C66.3888 5.43684 69.6698 5.43413 72.9503 5.42871C73.1019 5.42871 73.1446 5.4634 73.1424 5.61679C73.132 6.374 73.1303 7.13121 73.1358 7.88787C73.1369 8.02826 73.0986 8.05807 72.9607 8.05753C70.5798 8.05319 68.1984 8.05427 65.8175 8.05427C65.7448 8.05427 65.672 8.05427 65.5997 8.05644C65.3885 8.06349 65.2681 8.18544 65.2676 8.39033C65.267 8.62774 65.2758 8.86623 65.2616 9.10309C65.2501 9.289 65.3327 9.40012 65.5587 9.40554C66.0671 9.41692 66.5754 9.41584 67.0843 9.4218C68.5705 9.43969 70.0572 9.45215 71.5434 9.48142C72.0365 9.49118 72.4841 9.66896 72.8441 10.0066C73.0231 10.1741 73.1402 10.392 73.1391 10.6538C73.132 12.0799 73.1292 13.5054 73.1199 14.9315C73.1183 15.1922 72.9536 15.3705 72.7654 15.5309C72.3703 15.8675 71.9128 16.002 71.393 15.9993C69.7946 15.99 68.1962 15.996 66.5978 15.996V15.9727L66.5984 15.9732Z" fill="white"/>
<path d="M31.9939 7.98299C31.9326 7.98516 31.8713 7.98841 31.8101 7.98841C29.4401 7.98841 27.0702 7.98841 24.6997 7.98841C24.6384 7.98841 24.5766 7.98624 24.5153 7.99004C24.2444 8.00684 24.1804 8.07839 24.1749 8.34289C24.17 8.56837 24.152 8.79331 24.1465 9.0188C24.1416 9.23832 24.2466 9.34076 24.4688 9.34293C25.0778 9.34889 25.6869 9.35214 26.2959 9.35865C27.3569 9.37057 28.4174 9.37816 29.4779 9.40147C29.7849 9.40797 30.0924 9.39279 30.3983 9.41231C30.9586 9.44808 31.4631 9.62369 31.8369 10.0573C31.9463 10.1841 32.0268 10.3446 32.0262 10.5321C32.0229 11.9636 32.0246 13.3951 32.024 14.8271C32.024 15.0971 31.8593 15.2797 31.6722 15.4456C31.2951 15.7795 30.8541 15.9329 30.3457 15.9312C27.0144 15.9198 23.683 15.9133 20.3516 15.909C20.2367 15.909 20.2154 15.8727 20.2159 15.7681C20.2209 14.9886 20.2214 14.2092 20.2176 13.4298C20.2176 13.3246 20.2406 13.2932 20.3533 13.2916C22.7276 13.259 25.1008 13.3376 27.4746 13.3382C27.5753 13.3382 27.6765 13.3431 27.7761 13.3333C27.9528 13.316 28.0661 13.1902 28.0683 13.0195C28.0721 12.7766 28.0716 12.5333 28.0798 12.2905C28.0847 12.1441 28.0048 12.0839 27.874 12.0671C27.1829 11.9782 26.4874 11.9766 25.7925 11.9707C24.4064 11.9593 23.0204 11.9533 21.6348 11.9305C21.2277 11.924 20.8874 11.7289 20.5776 11.472C20.2942 11.2368 20.2072 10.95 20.2121 10.5885C20.2285 9.26759 20.228 7.94613 20.2121 6.62522C20.2077 6.28374 20.3303 6.04905 20.5935 5.84525C21.0039 5.52762 21.4537 5.3661 21.9796 5.36664C25.2661 5.37152 28.5531 5.36772 31.8396 5.3623C31.9884 5.3623 32.0328 5.39212 32.0306 5.5493C32.0191 6.35041 32.0224 7.15207 32.0207 7.95318C32.012 7.96293 32.0032 7.97269 31.9945 7.98245L31.9939 7.98299Z" fill="white"/>
<path d="M45.4441 9.30704C44.1478 9.30704 42.851 9.30541 41.5546 9.30812C41.4343 9.30812 41.4315 9.25012 41.4414 9.1634C41.4726 8.89998 41.4518 8.63818 41.2537 8.44413C41.0288 8.22407 40.7475 8.08423 40.4351 8.02081C39.9617 7.92433 39.4813 7.97637 39.0036 7.96227C38.7694 7.95523 38.5363 7.96228 38.3075 8.02027C37.9705 8.10591 37.6755 8.26201 37.4419 8.52164C37.3653 8.60674 37.333 8.70702 37.3319 8.81922C37.3166 10.0458 37.3062 11.2724 37.2826 12.499C37.2766 12.8188 37.4878 12.9749 37.7078 13.1283C37.8129 13.202 37.9426 13.2416 38.0613 13.2963C38.2386 13.3782 38.4263 13.3993 38.6194 13.3982C39.1059 13.3955 39.5929 13.4167 40.0777 13.3917C40.5587 13.3673 40.985 13.1982 41.2827 12.7922C41.4096 12.6193 41.397 12.4215 41.3872 12.2264C41.3812 12.1071 41.4091 12.0659 41.541 12.067C42.7984 12.0789 44.0559 12.0849 45.3128 12.0871C45.4283 12.0871 45.4496 12.125 45.4474 12.228C45.4409 12.5597 45.437 12.8914 45.4436 13.2226C45.4567 13.8622 45.1662 14.3609 44.7005 14.7685C44.3787 15.0498 44.0247 15.2926 43.6291 15.465C43.193 15.6558 42.7443 15.7956 42.2644 15.8525C40.6983 16.039 39.1267 15.9067 37.5584 15.9452C37.2569 15.9528 36.9549 15.9457 36.6533 15.9485C36.133 15.9528 35.6224 15.8937 35.1447 15.6774C34.864 15.5501 34.6188 15.3614 34.3835 15.1663C33.9934 14.8433 33.6273 14.4958 33.3762 14.0476C33.2383 13.802 33.1534 13.5446 33.1534 13.2616C33.154 11.4984 33.1556 9.73578 33.1523 7.97257C33.1518 7.59316 33.3132 7.2739 33.537 6.99205C34.1056 6.27712 34.8634 5.85218 35.739 5.58875C36.3398 5.40772 36.9455 5.35677 37.5644 5.35948C38.8613 5.3649 40.1576 5.36056 41.4545 5.36923C42.0914 5.37357 42.7153 5.48414 43.3073 5.71342C43.9623 5.96709 44.5538 6.33729 45.0316 6.85113C45.3276 7.16984 45.5153 7.55901 45.5142 8.0116C45.5131 8.43546 45.5142 8.85932 45.4737 9.28156C45.4644 9.29023 45.4545 9.29891 45.4452 9.30758L45.4441 9.30704Z" fill="white"/>
<path d="M11.047 15.9158H7.58373C7.52244 15.9158 7.46061 15.9158 7.39932 15.9158C7.01355 15.9158 7.00753 15.9191 6.84063 15.5933C6.52599 14.9781 6.1818 14.3792 5.84089 13.7781C5.59465 13.3434 5.36756 12.8984 5.1268 12.4604C4.82583 11.913 4.5194 11.3683 4.21406 10.823C4.20695 10.81 4.19163 10.8018 4.15004 10.765C4.15004 10.8539 4.15004 10.9157 4.15004 10.9775C4.15004 12.5694 4.14785 14.1613 4.15387 15.7532C4.15442 15.9055 4.11338 15.944 3.96071 15.9435C2.69722 15.937 1.43428 15.9375 0.170786 15.9435C0.0279662 15.944 -0.000488281 15.9039 -0.000488281 15.769C0.00443654 12.3634 0.00498374 8.95842 5.89208e-05 5.55343C5.89208e-05 5.3995 0.0427407 5.36372 0.193768 5.36426C1.83702 5.36968 3.48081 5.36968 5.12406 5.36426C5.26141 5.36426 5.32926 5.40871 5.39109 5.52579C5.67947 6.07052 5.97824 6.60983 6.27264 7.15077C6.59932 7.75134 6.9249 8.3519 7.25158 8.95246C7.63955 9.66631 8.02861 10.3796 8.41657 11.094C8.92055 12.0209 9.4278 12.9466 9.92576 13.8767C10.1966 14.383 10.4823 14.8817 10.7422 15.3944C10.8275 15.5624 10.9135 15.7348 11.0475 15.9158H11.047Z" fill="#FDC90C"/>
<path d="M5.09659 2.44531C5.37402 2.796 5.652 3.14615 5.92943 3.49684C6.49469 4.21014 7.0594 4.92345 7.62466 5.63675C8.0761 6.20642 8.52918 6.77554 8.98008 7.34629C9.46435 7.95878 9.93932 8.57885 10.4356 9.18158C10.5527 9.32359 10.6293 9.51114 10.8504 9.61575C10.3585 8.3176 9.87749 7.0498 9.39595 5.7793C9.44082 5.73811 9.47147 5.77388 9.50047 5.80911C9.87202 6.2617 10.2419 6.71538 10.614 7.16742C10.9648 7.59291 11.3199 8.01515 11.6674 8.44281C11.7604 8.55717 11.8157 8.5214 11.8737 8.42004C12.2956 7.68506 12.7175 6.95007 13.1388 6.21509C13.2767 5.97497 13.4119 5.73323 13.5492 5.49311C13.5946 5.41343 13.6543 5.37278 13.7593 5.37332C15.3583 5.37766 16.9572 5.3782 18.5561 5.37332C18.6929 5.37332 18.7192 5.41398 18.7186 5.53973C18.7153 8.94526 18.7153 12.3503 18.7186 15.7558C18.7186 15.8788 18.6962 15.9227 18.5583 15.9216C17.39 15.9157 16.2217 15.9151 15.0529 15.9216C14.9117 15.9222 14.8915 15.875 14.8926 15.7531C14.9134 13.5644 14.9309 11.3757 14.9462 9.187C14.9462 9.11058 14.996 8.98808 14.915 8.96532C14.8362 8.94309 14.7919 9.06613 14.7602 9.13605C14.5774 9.53824 14.3383 9.91115 14.1249 10.296C13.8655 10.7643 13.6012 11.2315 13.3396 11.6987C13.1224 12.0874 12.9013 12.4749 12.6912 12.8684C12.5484 13.1362 12.3979 13.4039 12.2392 13.6647C12.0942 13.9026 11.9667 14.1514 11.8321 14.3964C11.819 14.4202 11.8102 14.4463 11.7708 14.4549C11.6318 14.295 11.5503 14.0967 11.4441 13.9145C11.1092 13.34 10.7869 12.7579 10.463 12.1774C10.2091 11.7226 9.9634 11.263 9.70895 10.8087C9.45122 10.3486 9.18473 9.89326 8.927 9.43363C8.67583 8.98646 8.43397 8.53441 8.18226 8.08724C7.87199 7.53654 7.55352 6.99018 7.24381 6.43894C6.98881 5.98473 6.74366 5.52509 6.48921 5.07033C6.2479 4.63888 5.99783 4.21231 5.75651 3.78086C5.50918 3.33857 5.26841 2.89302 5.0249 2.44911C5.04843 2.44802 5.07251 2.44694 5.09604 2.44585L5.09659 2.44531Z" fill="white"/>
<path d="M15.8947 0.898003C16.7549 0.899087 17.6157 0.899629 18.4759 0.900713C18.4841 0.908301 18.4918 0.916432 18.5 0.92402C18.5022 1.65358 18.506 2.38261 18.5071 3.11217C18.5076 3.54308 18.5044 3.97453 18.5027 4.40544C18.494 4.4152 18.4852 4.42441 18.4764 4.43417C17.0904 4.43579 15.7043 4.43742 14.3183 4.44067C14.2411 4.44067 14.2099 4.42062 14.2105 4.33877C14.2154 3.66449 14.2165 2.99076 14.2187 2.31648C14.2296 2.30781 14.24 2.29913 14.2509 2.29046C14.7079 2.28884 15.1642 2.28721 15.6211 2.28613C15.8553 2.28558 15.8548 2.28613 15.8553 2.04655C15.857 1.67201 15.8597 1.29802 15.8619 0.923478C15.8729 0.914806 15.8833 0.906133 15.8942 0.897461L15.8947 0.898003Z" fill="white"/>
<path d="M14.3181 1.71066C14.0166 1.71066 13.7145 1.7074 13.413 1.71282C13.3162 1.71445 13.2762 1.69765 13.2779 1.58816C13.2844 1.10196 13.2834 0.615767 13.2779 0.129572C13.2768 0.0287556 13.3031 -0.00105573 13.4076 2.83146e-05C14.0111 0.00490653 14.6141 0.0043645 15.2177 2.83146e-05C15.3157 -0.000513709 15.3523 0.016831 15.3512 0.124694C15.3447 0.610889 15.3458 1.09708 15.3512 1.58328C15.3523 1.68301 15.3299 1.71608 15.2232 1.71337C14.9217 1.70578 14.6196 1.71066 14.3181 1.71066Z" fill="white"/>
</g>
<defs>
<clipPath id="clip0_9636_3604">
<rect width="73.1429" height="16" fill="white"/>
</clipPath>
</defs>
</svg>
