<svg width="86" height="86" viewBox="0 0 86 86" fill="none" xmlns="http://www.w3.org/2000/svg">
<path d="M20.7299 77.1221H22.8703L26.2819 85.1624H23.9009L23.3172 83.7371H20.2263L19.6543 85.1624H17.3193L20.731 77.1221H20.7299ZM22.6757 82.0147L21.783 79.7447L20.8785 82.0147H22.6757Z" fill="white"/>
<path d="M26.2701 81.1946V81.1722C26.2701 78.8457 28.1015 77.021 30.5851 77.021C31.9932 77.021 32.9886 77.4545 33.8364 78.1842L32.531 79.7469C31.959 79.2676 31.3859 78.9938 30.5969 78.9938C29.4412 78.9938 28.5474 79.9631 28.5474 81.1839V81.2063C28.5474 82.4952 29.4519 83.4188 30.722 83.4188C31.2598 83.4188 31.6725 83.3048 32.0039 83.0885V82.1192H30.4237V80.5H34.1101V84.093C33.2633 84.7886 32.0841 85.3244 30.6301 85.3244C28.1347 85.3244 26.269 83.6137 26.269 81.1956L26.2701 81.1946Z" fill="white"/>
<path d="M35.3481 77.1797H41.7929V79.0619H37.5463V80.271H41.392V82.0158H37.5463V83.2813H41.8506V85.1636H35.3492V77.1797H35.3481Z" fill="white"/>
<path d="M42.9839 77.1797H45.0559L48.3531 81.4001V77.1797H50.5512V85.1636H48.6054L45.1831 80.7844V85.1636H42.985V77.1797H42.9839Z" fill="white"/>
<path d="M51.6953 81.1946V81.1722C51.6953 78.8457 53.4925 77.021 55.9195 77.021C57.5563 77.021 58.6094 77.7049 59.3193 78.6859L57.6483 79.9749C57.1907 79.405 56.6636 79.0396 55.897 79.0396C54.7755 79.0396 53.9854 79.9866 53.9854 81.1498V81.1722C53.9854 82.3695 54.7755 83.3048 55.897 83.3048C56.7331 83.3048 57.2249 82.917 57.706 82.3354L59.3771 83.5221C58.6212 84.5596 57.6023 85.3244 55.8286 85.3244C53.5396 85.3244 51.6964 83.5796 51.6964 81.1956L51.6953 81.1946Z" fill="white"/>
<path d="M62.4101 82.1746L59.3652 77.1787H61.8948L63.5434 80.0868L65.2038 77.1787H67.6874L64.6425 82.1395V85.1615H62.4101V82.1736V82.1746Z" fill="white"/>
<path d="M0 69.1243L1.76558 67.0221C2.89403 67.9188 4.15336 68.3912 5.47812 68.3912C6.32876 68.3912 6.7868 68.0983 6.7868 67.6088V67.5768C6.7868 67.1044 6.41027 66.8436 4.85706 66.4856C2.41992 65.932 0.539546 65.2469 0.539546 62.901V62.869C0.539546 60.7508 2.22362 59.2192 4.97186 59.2192C6.91767 59.2192 8.43873 59.7408 9.68199 60.7347L8.09549 62.9674C7.04854 62.2342 5.90401 61.8431 4.89036 61.8431C4.12122 61.8431 3.74583 62.169 3.74583 62.5762V62.6082C3.74583 63.1298 4.13843 63.3574 5.72493 63.7166C8.35723 64.2873 9.99309 65.1337 9.99309 67.2691V67.3011C9.99309 69.631 8.14485 71.0161 5.36562 71.0161C3.3383 71.0161 1.40856 70.3802 0.00229594 69.1266L0 69.1243Z" fill="white"/>
<path d="M11.5291 59.4126H20.7358V62.1005H14.6688V63.8276H20.1629V66.321H14.6688V68.1293H20.8173V70.8183H11.5291V59.4126Z" fill="white"/>
<path d="M21.9629 65.1485V65.1165C21.9629 61.7927 24.5298 59.186 27.9978 59.186C30.3362 59.186 31.8412 60.164 32.8548 61.5651L30.4671 63.4066C29.8127 62.5922 29.0608 62.0706 27.9645 62.0706C26.3619 62.0706 25.2335 63.4226 25.2335 65.0845V65.1165C25.2335 66.8276 26.3619 68.1635 27.9645 68.1635C29.1584 68.1635 29.8609 67.6099 30.5486 66.7784L32.9363 68.4735C31.8573 69.9558 30.4016 71.0481 27.8669 71.0481C24.5963 71.0481 21.9629 68.5547 21.9629 65.1497V65.1485Z" fill="white"/>
<path d="M34.1464 65.8164V59.4136H37.3676V65.7512C37.3676 67.3971 38.2022 68.1795 39.4776 68.1795C40.753 68.1795 41.5876 67.4303 41.5876 65.8336V59.4136H44.8088V65.7352C44.8088 69.417 42.6988 71.0309 39.4443 71.0309C36.1898 71.0309 34.1453 69.385 34.1453 65.8164H34.1464Z" fill="white"/>
<path d="M46.6904 59.4126H52.103C53.8525 59.4126 55.0637 59.869 55.8316 60.6513C56.5021 61.3033 56.8453 62.1828 56.8453 63.3071V63.3392C56.8453 65.0823 55.9132 66.2398 54.4908 66.8425L57.2218 70.8183H53.5587L51.2524 67.3641H49.8622V70.8183H46.6892V59.4126H46.6904ZM51.9561 64.8867C53.0352 64.8867 53.6574 64.3651 53.6574 63.5348V63.5027C53.6574 62.606 53.0031 62.1508 51.94 62.1508H49.8633V64.8878H51.9561V64.8867Z" fill="white"/>
<path d="M58.5132 59.4126H61.7022V70.8183H58.5132V59.4126Z" fill="white"/>
<path d="M66.5925 62.1828H63.1589V59.4126H73.2002V62.1828H69.7655V70.8183H66.5925V62.1828Z" fill="white"/>
<path d="M77.8921 66.5496L73.5425 59.4136H77.1563L79.5108 63.5689L81.8825 59.4136H85.4309L81.0812 66.5015V70.8193H77.8921V66.5507V66.5496Z" fill="white"/>
<path d="M24.0753 49.45C24.6331 49.5252 25.1836 49.6525 25.7293 49.7919C37.7241 52.8513 49.4109 53.044 60.7315 49.821C61.316 49.6549 61.9101 49.5337 62.5079 49.4258C64.1352 49.13 65.3684 47.707 65.3684 45.9955L65.3684 15.0023C65.3684 13.4193 64.3123 12.0835 62.8669 11.6581L43.4802 2.22399C43.3129 2.14278 43.1164 2.14278 42.9491 2.22399L23.5624 11.6581C22.117 12.0835 21.0609 13.4193 21.0609 15.0023L21.0609 45.9967C21.0609 47.7615 22.3729 49.2197 24.0753 49.4513L24.0753 49.45Z" fill="url(#paint0_linear_9636_3563)"/>
<path d="M62.2304 13.3042L62.3711 13.3454C63.1011 13.56 63.6104 14.2412 63.6104 15.0036L63.6104 45.9967C63.6104 46.8331 63.015 47.5483 62.1941 47.6974C61.6254 47.8004 60.9487 47.9325 60.2491 48.1325C54.9465 49.6416 49.4087 50.4077 43.7896 50.4077C38.1705 50.4077 32.1889 49.6283 26.1636 48.0913C25.6276 47.9543 24.9886 47.8028 24.3107 47.7107C23.4607 47.5956 22.8193 46.8586 22.8193 45.998L22.8193 15.0048C22.8193 14.2436 23.3286 13.5612 24.0585 13.3466L24.1992 13.3054L43.2148 4.05318L62.2304 13.3054L62.2304 13.3042Z" fill="#0A3142"/>
<path d="M43.4379 28.7869C50.9608 28.7869 57.9319 27.4729 63.6467 25.2365L63.6467 15.0037C63.6467 14.2424 63.1374 13.56 62.4075 13.3455L62.2668 13.3043L43.2512 4.05201L24.2356 13.3043L24.0949 13.3455C23.3649 13.56 22.8557 14.2412 22.8557 15.0037L22.8557 25.0886C28.6396 27.4147 35.7502 28.7881 43.4379 28.7881L43.4379 28.7869Z" fill="#0A3142"/>
<path opacity="0.5" d="M43.7907 50.4062C48.6385 50.4062 53.4258 49.8353 58.0554 48.7093C54.1339 47.7238 49.0254 47.1274 43.439 47.1274C37.8527 47.1274 32.7271 47.725 28.8032 48.7141C33.9203 49.8365 38.9513 50.4062 43.7919 50.4062L43.7907 50.4062Z" fill="#58595B"/>
<path opacity="0.5" d="M43.2146 4.05198L35.4044 7.85325C37.6537 8.54538 40.4269 8.95508 43.4292 8.95508C46.4315 8.95508 48.9889 8.57689 51.1897 7.93325L43.2158 4.0532L43.2146 4.05198Z" fill="#58595B"/>
<path d="M60.717 44.6355C60.717 44.2149 61.0577 43.8731 61.4797 43.8731C61.9017 43.8731 62.2424 44.2137 62.2424 44.6355C62.2424 45.0573 61.9017 45.3979 61.4797 45.3979C61.0577 45.3979 60.717 45.0573 60.717 44.6355Z" fill="url(#paint1_linear_9636_3563)"/>
<path d="M24.0534 44.6355C24.0534 44.2149 24.3942 43.8731 24.8161 43.8731C25.2381 43.8731 25.5789 44.2137 25.5789 44.6355C25.5789 45.0573 25.2381 45.3979 24.8161 45.3979C24.3942 45.3979 24.0534 45.0573 24.0534 44.6355Z" fill="url(#paint2_linear_9636_3563)"/>
<path d="M60.717 14.9016C60.717 14.481 61.0577 14.1392 61.4797 14.1392C61.9017 14.1392 62.2424 14.4798 62.2424 14.9016C62.2424 15.3235 61.9017 15.6641 61.4797 15.6641C61.0577 15.6641 60.717 15.3235 60.717 14.9016Z" fill="url(#paint3_linear_9636_3563)"/>
<path d="M24.0534 14.9016C24.0534 14.481 24.3942 14.1392 24.8161 14.1392C25.2381 14.1392 25.5789 14.4798 25.5789 14.9016C25.5789 15.3235 25.2381 15.6641 24.8161 15.6641C24.3942 15.6641 24.0534 15.3235 24.0534 14.9016Z" fill="url(#paint4_linear_9636_3563)"/>
<path d="M42.4253 5.7405C42.4253 5.31989 42.766 4.97806 43.188 4.97806C43.6099 4.97806 43.9507 5.31867 43.9507 5.7405C43.9507 6.16232 43.6099 6.50293 43.188 6.50293C42.766 6.50293 42.4253 6.16232 42.4253 5.7405Z" fill="url(#paint5_linear_9636_3563)"/>
<path d="M42.4253 48.7674C42.4253 48.3467 42.766 48.0049 43.188 48.0049C43.6099 48.0049 43.9507 48.3455 43.9507 48.7674C43.9507 49.1892 43.6099 49.5298 43.188 49.5298C42.766 49.5298 42.4253 49.1892 42.4253 48.7674Z" fill="url(#paint6_linear_9636_3563)"/>
<path d="M29.6313 19.1226L43.194 28.4172L56.7567 19.1226V39.5361H50.5919V30.1639L43.194 35.6076L35.7961 30.1639V39.5361H29.6313V19.1226Z" fill="#DD001B"/>
<defs>
<linearGradient id="paint0_linear_9636_3563" x1="43.2146" y1="2.16581" x2="43.2146" y2="52.164" gradientUnits="userSpaceOnUse">
<stop stop-color="#0D1322"/>
<stop offset="0.38" stop-color="#182432"/>
<stop offset="1" stop-color="#314955"/>
</linearGradient>
<linearGradient id="paint1_linear_9636_3563" x1="61.4797" y1="43.8731" x2="61.4797" y2="45.3979" gradientUnits="userSpaceOnUse">
<stop stop-color="#8A8C8E"/>
<stop offset="0.19" stop-color="#9EA0A2"/>
<stop offset="0.51" stop-color="#BABCBD"/>
<stop offset="0.79" stop-color="#CBCDCE"/>
<stop offset="1" stop-color="#D1D3D4"/>
</linearGradient>
<linearGradient id="paint2_linear_9636_3563" x1="24.8149" y1="52.1641" x2="24.8149" y2="52.1641" gradientUnits="userSpaceOnUse">
<stop stop-color="#8A8C8E"/>
<stop offset="0.19" stop-color="#9EA0A2"/>
<stop offset="0.51" stop-color="#BABCBD"/>
<stop offset="0.79" stop-color="#CBCDCE"/>
<stop offset="1" stop-color="#D1D3D4"/>
</linearGradient>
<linearGradient id="paint3_linear_9636_3563" x1="88.3347" y1="14.1392" x2="88.2135" y2="15.6641" gradientUnits="userSpaceOnUse">
<stop stop-color="#8A8C8E"/>
<stop offset="0.19" stop-color="#9EA0A2"/>
<stop offset="0.51" stop-color="#BABCBD"/>
<stop offset="0.79" stop-color="#CBCDCE"/>
<stop offset="1" stop-color="#D1D3D4"/>
</linearGradient>
<linearGradient id="paint4_linear_9636_3563" x1="24.8149" y1="14.1392" x2="24.8149" y2="15.6641" gradientUnits="userSpaceOnUse">
<stop stop-color="#8A8C8E"/>
<stop offset="0.19" stop-color="#9EA0A2"/>
<stop offset="0.51" stop-color="#BABCBD"/>
<stop offset="0.79" stop-color="#CBCDCE"/>
<stop offset="1" stop-color="#D1D3D4"/>
</linearGradient>
<linearGradient id="paint5_linear_9636_3563" x1="43.188" y1="4.97928" x2="43.188" y2="6.50293" gradientUnits="userSpaceOnUse">
<stop stop-color="#8A8C8E"/>
<stop offset="0.19" stop-color="#9EA0A2"/>
<stop offset="0.51" stop-color="#BABCBD"/>
<stop offset="0.79" stop-color="#CBCDCE"/>
<stop offset="1" stop-color="#D1D3D4"/>
</linearGradient>
<linearGradient id="paint6_linear_9636_3563" x1="43.188" y1="48.0049" x2="43.188" y2="49.5286" gradientUnits="userSpaceOnUse">
<stop stop-color="#8A8C8E"/>
<stop offset="0.19" stop-color="#9EA0A2"/>
<stop offset="0.51" stop-color="#BABCBD"/>
<stop offset="0.79" stop-color="#CBCDCE"/>
<stop offset="1" stop-color="#D1D3D4"/>
</linearGradient>
</defs>
</svg>
